<mxfile host="app.diagrams.net" modified="2023-09-08T00:07:34.265Z" agent="Mozilla/5.0 (Windows NT 10.0; Win64; x64) AppleWebKit/537.36 (KHTML, like Gecko) Chrome/115.0.0.0 Safari/537.36" etag="9IeK7Vu98-4cX8htOt8T" version="21.7.2" type="github">
  <diagram id="C5RBs43oDa-KdzZeNtuy" name="Page-1">
    <mxGraphModel dx="1615" dy="2187" grid="1" gridSize="10" guides="1" tooltips="1" connect="1" arrows="1" fold="1" page="1" pageScale="1" pageWidth="827" pageHeight="1169" math="0" shadow="0">
      <root>
        <mxCell id="WIyWlLk6GJQsqaUBKTNV-0" />
        <mxCell id="WIyWlLk6GJQsqaUBKTNV-1" parent="WIyWlLk6GJQsqaUBKTNV-0" />
        <mxCell id="SwmDp8Q7kqdRHF0E6y4U-11" style="edgeStyle=orthogonalEdgeStyle;rounded=0;orthogonalLoop=1;jettySize=auto;html=1;entryX=0.5;entryY=0;entryDx=0;entryDy=0;" edge="1" parent="WIyWlLk6GJQsqaUBKTNV-1" source="WIyWlLk6GJQsqaUBKTNV-3" target="WIyWlLk6GJQsqaUBKTNV-6">
          <mxGeometry relative="1" as="geometry" />
        </mxCell>
        <mxCell id="WIyWlLk6GJQsqaUBKTNV-3" value="&amp;nbsp; &amp;nbsp; Определение цели&lt;span style=&quot;white-space: pre;&quot;&gt;&#x9;&lt;/span&gt;" style="rounded=1;whiteSpace=wrap;html=1;fontSize=12;glass=0;strokeWidth=1;shadow=0;align=center;" parent="WIyWlLk6GJQsqaUBKTNV-1" vertex="1">
          <mxGeometry x="274" y="-130" width="140" height="40" as="geometry" />
        </mxCell>
        <mxCell id="SwmDp8Q7kqdRHF0E6y4U-1" style="edgeStyle=orthogonalEdgeStyle;rounded=0;orthogonalLoop=1;jettySize=auto;html=1;" edge="1" parent="WIyWlLk6GJQsqaUBKTNV-1" source="WIyWlLk6GJQsqaUBKTNV-6" target="SwmDp8Q7kqdRHF0E6y4U-0">
          <mxGeometry relative="1" as="geometry" />
        </mxCell>
        <mxCell id="WIyWlLk6GJQsqaUBKTNV-6" value="Выбор инструмента" style="rhombus;whiteSpace=wrap;html=1;shadow=0;fontFamily=Helvetica;fontSize=12;align=center;strokeWidth=1;spacing=6;spacingTop=-4;" parent="WIyWlLk6GJQsqaUBKTNV-1" vertex="1">
          <mxGeometry x="284" y="-20" width="120" height="100" as="geometry" />
        </mxCell>
        <mxCell id="SwmDp8Q7kqdRHF0E6y4U-14" style="edgeStyle=orthogonalEdgeStyle;rounded=0;orthogonalLoop=1;jettySize=auto;html=1;" edge="1" parent="WIyWlLk6GJQsqaUBKTNV-1" source="SwmDp8Q7kqdRHF0E6y4U-0">
          <mxGeometry relative="1" as="geometry">
            <mxPoint x="710" y="30" as="targetPoint" />
          </mxGeometry>
        </mxCell>
        <mxCell id="SwmDp8Q7kqdRHF0E6y4U-15" style="edgeStyle=orthogonalEdgeStyle;rounded=0;orthogonalLoop=1;jettySize=auto;html=1;" edge="1" parent="WIyWlLk6GJQsqaUBKTNV-1" source="SwmDp8Q7kqdRHF0E6y4U-0">
          <mxGeometry relative="1" as="geometry">
            <mxPoint x="550" y="150" as="targetPoint" />
          </mxGeometry>
        </mxCell>
        <mxCell id="SwmDp8Q7kqdRHF0E6y4U-0" value="&amp;nbsp; &amp;nbsp; Поиск учителя&lt;span style=&quot;white-space: pre;&quot;&gt;&#x9;&lt;/span&gt;" style="rounded=0;whiteSpace=wrap;html=1;align=center;" vertex="1" parent="WIyWlLk6GJQsqaUBKTNV-1">
          <mxGeometry x="490" width="120" height="60" as="geometry" />
        </mxCell>
        <mxCell id="SwmDp8Q7kqdRHF0E6y4U-7" style="edgeStyle=orthogonalEdgeStyle;rounded=0;orthogonalLoop=1;jettySize=auto;html=1;" edge="1" parent="WIyWlLk6GJQsqaUBKTNV-1" source="SwmDp8Q7kqdRHF0E6y4U-3" target="WIyWlLk6GJQsqaUBKTNV-3">
          <mxGeometry relative="1" as="geometry" />
        </mxCell>
        <mxCell id="SwmDp8Q7kqdRHF0E6y4U-3" value="НАЧАЛО&#x9;" style="ellipse;whiteSpace=wrap;html=1;aspect=fixed;" vertex="1" parent="WIyWlLk6GJQsqaUBKTNV-1">
          <mxGeometry x="40" y="-180" width="80" height="80" as="geometry" />
        </mxCell>
        <mxCell id="SwmDp8Q7kqdRHF0E6y4U-5" value="КОНЕЦ" style="ellipse;whiteSpace=wrap;html=1;aspect=fixed;" vertex="1" parent="WIyWlLk6GJQsqaUBKTNV-1">
          <mxGeometry x="540" y="490" width="80" height="80" as="geometry" />
        </mxCell>
        <mxCell id="SwmDp8Q7kqdRHF0E6y4U-12" value="Да" style="text;strokeColor=none;fillColor=none;html=1;fontSize=14;fontStyle=0;verticalAlign=middle;align=center;" vertex="1" parent="WIyWlLk6GJQsqaUBKTNV-1">
          <mxGeometry x="600" width="100" height="40" as="geometry" />
        </mxCell>
        <mxCell id="SwmDp8Q7kqdRHF0E6y4U-13" value="Нет&lt;span style=&quot;white-space: pre; font-size: 14px;&quot;&gt;&#x9;&lt;/span&gt;" style="text;strokeColor=none;fillColor=none;html=1;fontSize=14;fontStyle=0;verticalAlign=middle;align=center;rotation=-90;" vertex="1" parent="WIyWlLk6GJQsqaUBKTNV-1">
          <mxGeometry x="490" y="80" width="100" height="40" as="geometry" />
        </mxCell>
        <mxCell id="SwmDp8Q7kqdRHF0E6y4U-20" style="edgeStyle=orthogonalEdgeStyle;rounded=0;orthogonalLoop=1;jettySize=auto;html=1;entryX=0.5;entryY=0;entryDx=0;entryDy=0;" edge="1" parent="WIyWlLk6GJQsqaUBKTNV-1" source="SwmDp8Q7kqdRHF0E6y4U-16" target="SwmDp8Q7kqdRHF0E6y4U-21">
          <mxGeometry relative="1" as="geometry">
            <mxPoint x="767" y="130" as="targetPoint" />
          </mxGeometry>
        </mxCell>
        <mxCell id="SwmDp8Q7kqdRHF0E6y4U-16" value="Изучение нот и аккордов с учителем" style="rounded=1;whiteSpace=wrap;html=1;" vertex="1" parent="WIyWlLk6GJQsqaUBKTNV-1">
          <mxGeometry x="707" width="120" height="60" as="geometry" />
        </mxCell>
        <mxCell id="SwmDp8Q7kqdRHF0E6y4U-19" style="edgeStyle=orthogonalEdgeStyle;rounded=0;orthogonalLoop=1;jettySize=auto;html=1;entryX=0;entryY=0.5;entryDx=0;entryDy=0;" edge="1" parent="WIyWlLk6GJQsqaUBKTNV-1" source="SwmDp8Q7kqdRHF0E6y4U-17" target="SwmDp8Q7kqdRHF0E6y4U-21">
          <mxGeometry relative="1" as="geometry">
            <mxPoint x="750" y="180" as="targetPoint" />
          </mxGeometry>
        </mxCell>
        <mxCell id="SwmDp8Q7kqdRHF0E6y4U-17" value="Изучение нот и аккордов самостоятельно&lt;span style=&quot;white-space: pre;&quot;&gt;&#x9;&lt;/span&gt;" style="rounded=1;whiteSpace=wrap;html=1;" vertex="1" parent="WIyWlLk6GJQsqaUBKTNV-1">
          <mxGeometry x="490" y="150" width="120" height="60" as="geometry" />
        </mxCell>
        <mxCell id="SwmDp8Q7kqdRHF0E6y4U-25" style="edgeStyle=orthogonalEdgeStyle;rounded=0;orthogonalLoop=1;jettySize=auto;html=1;" edge="1" parent="WIyWlLk6GJQsqaUBKTNV-1" source="SwmDp8Q7kqdRHF0E6y4U-21">
          <mxGeometry relative="1" as="geometry">
            <mxPoint x="820" y="360" as="targetPoint" />
          </mxGeometry>
        </mxCell>
        <mxCell id="SwmDp8Q7kqdRHF0E6y4U-21" value="Игра простых мелодий" style="rhombus;whiteSpace=wrap;html=1;" vertex="1" parent="WIyWlLk6GJQsqaUBKTNV-1">
          <mxGeometry x="760" y="160" width="120" height="120" as="geometry" />
        </mxCell>
        <mxCell id="SwmDp8Q7kqdRHF0E6y4U-51" style="edgeStyle=orthogonalEdgeStyle;rounded=0;orthogonalLoop=1;jettySize=auto;html=1;exitX=1;exitY=0.5;exitDx=0;exitDy=0;entryX=0;entryY=0.5;entryDx=0;entryDy=0;" edge="1" parent="WIyWlLk6GJQsqaUBKTNV-1" source="SwmDp8Q7kqdRHF0E6y4U-24" target="SwmDp8Q7kqdRHF0E6y4U-44">
          <mxGeometry relative="1" as="geometry" />
        </mxCell>
        <mxCell id="SwmDp8Q7kqdRHF0E6y4U-24" value="Прослушивание музыки" style="rounded=1;whiteSpace=wrap;html=1;" vertex="1" parent="WIyWlLk6GJQsqaUBKTNV-1">
          <mxGeometry x="950" y="190" width="120" height="60" as="geometry" />
        </mxCell>
        <mxCell id="SwmDp8Q7kqdRHF0E6y4U-47" style="edgeStyle=orthogonalEdgeStyle;rounded=0;orthogonalLoop=1;jettySize=auto;html=1;entryX=0.5;entryY=0;entryDx=0;entryDy=0;" edge="1" parent="WIyWlLk6GJQsqaUBKTNV-1" source="SwmDp8Q7kqdRHF0E6y4U-26" target="SwmDp8Q7kqdRHF0E6y4U-45">
          <mxGeometry relative="1" as="geometry" />
        </mxCell>
        <mxCell id="SwmDp8Q7kqdRHF0E6y4U-26" value="Регулярная практика&lt;span style=&quot;white-space: pre;&quot;&gt;&#x9;&lt;/span&gt;" style="rounded=1;whiteSpace=wrap;html=1;" vertex="1" parent="WIyWlLk6GJQsqaUBKTNV-1">
          <mxGeometry x="760" y="360" width="110" height="60" as="geometry" />
        </mxCell>
        <mxCell id="SwmDp8Q7kqdRHF0E6y4U-28" value="Ошибки" style="ellipse;whiteSpace=wrap;strokeWidth=2;fillWeight=2;hachureGap=8;fillColor=#990000;fillStyle=dots;sketch=1;fontStyle=1;fontSize=16;fontColor=#000000;labelBorderColor=none;spacingTop=0;labelBackgroundColor=default;" vertex="1" parent="WIyWlLk6GJQsqaUBKTNV-1">
          <mxGeometry x="950" y="360" width="120" height="60" as="geometry" />
        </mxCell>
        <mxCell id="SwmDp8Q7kqdRHF0E6y4U-29" value="Наслаждение процессом" style="rounded=1;whiteSpace=wrap;html=1;strokeWidth=2;fillWeight=4;hachureGap=8;hachureAngle=45;fillColor=#1ba1e2;sketch=1;fontStyle=1" vertex="1" parent="WIyWlLk6GJQsqaUBKTNV-1">
          <mxGeometry x="560" y="360" width="120" height="60" as="geometry" />
        </mxCell>
        <mxCell id="SwmDp8Q7kqdRHF0E6y4U-38" value="" style="shape=flexArrow;endArrow=classic;startArrow=classic;html=1;rounded=0;endWidth=13.6;endSize=6.4719999999999995;startWidth=13.6;startSize=7.312;exitX=1;exitY=0.5;exitDx=0;exitDy=0;entryX=0;entryY=0.5;entryDx=0;entryDy=0;" edge="1" parent="WIyWlLk6GJQsqaUBKTNV-1" source="SwmDp8Q7kqdRHF0E6y4U-21" target="SwmDp8Q7kqdRHF0E6y4U-24">
          <mxGeometry width="100" height="100" relative="1" as="geometry">
            <mxPoint x="880" y="230" as="sourcePoint" />
            <mxPoint x="948" y="227" as="targetPoint" />
            <Array as="points" />
          </mxGeometry>
        </mxCell>
        <mxCell id="SwmDp8Q7kqdRHF0E6y4U-39" value="" style="shape=flexArrow;endArrow=classic;startArrow=classic;html=1;rounded=0;endWidth=13.6;endSize=6.4719999999999995;startWidth=13.6;startSize=7.312;exitX=1;exitY=0.5;exitDx=0;exitDy=0;entryX=0;entryY=0.5;entryDx=0;entryDy=0;" edge="1" parent="WIyWlLk6GJQsqaUBKTNV-1">
          <mxGeometry width="100" height="100" relative="1" as="geometry">
            <mxPoint x="880" y="220" as="sourcePoint" />
            <mxPoint x="950" y="220" as="targetPoint" />
            <Array as="points" />
          </mxGeometry>
        </mxCell>
        <mxCell id="SwmDp8Q7kqdRHF0E6y4U-40" value="" style="shape=flexArrow;endArrow=classic;startArrow=classic;html=1;rounded=0;endWidth=13.6;endSize=6.4719999999999995;startWidth=13.6;startSize=7.312;exitX=1;exitY=0.5;exitDx=0;exitDy=0;entryX=0;entryY=0.5;entryDx=0;entryDy=0;" edge="1" parent="WIyWlLk6GJQsqaUBKTNV-1" target="SwmDp8Q7kqdRHF0E6y4U-26">
          <mxGeometry width="100" height="100" relative="1" as="geometry">
            <mxPoint x="680" y="389.65999999999997" as="sourcePoint" />
            <mxPoint x="750" y="390" as="targetPoint" />
            <Array as="points" />
          </mxGeometry>
        </mxCell>
        <mxCell id="SwmDp8Q7kqdRHF0E6y4U-41" value="" style="shape=flexArrow;endArrow=classic;startArrow=classic;html=1;rounded=0;endWidth=13.6;endSize=6.4719999999999995;startWidth=13.6;startSize=7.312;exitX=1;exitY=0.5;exitDx=0;exitDy=0;entryX=0;entryY=0.5;entryDx=0;entryDy=0;" edge="1" parent="WIyWlLk6GJQsqaUBKTNV-1" target="SwmDp8Q7kqdRHF0E6y4U-28">
          <mxGeometry width="100" height="100" relative="1" as="geometry">
            <mxPoint x="870" y="389.52" as="sourcePoint" />
            <mxPoint x="940" y="390" as="targetPoint" />
            <Array as="points" />
          </mxGeometry>
        </mxCell>
        <mxCell id="SwmDp8Q7kqdRHF0E6y4U-52" style="edgeStyle=orthogonalEdgeStyle;rounded=0;orthogonalLoop=1;jettySize=auto;html=1;exitX=0.5;exitY=1;exitDx=0;exitDy=0;entryX=0.75;entryY=0;entryDx=0;entryDy=0;" edge="1" parent="WIyWlLk6GJQsqaUBKTNV-1" source="SwmDp8Q7kqdRHF0E6y4U-44" target="SwmDp8Q7kqdRHF0E6y4U-26">
          <mxGeometry relative="1" as="geometry" />
        </mxCell>
        <mxCell id="SwmDp8Q7kqdRHF0E6y4U-44" value="&amp;nbsp; &amp;nbsp;Импровизация&lt;span style=&quot;white-space: pre;&quot;&gt;&#x9;&lt;/span&gt;" style="rounded=1;whiteSpace=wrap;html=1;" vertex="1" parent="WIyWlLk6GJQsqaUBKTNV-1">
          <mxGeometry x="1130" y="190" width="120" height="60" as="geometry" />
        </mxCell>
        <mxCell id="SwmDp8Q7kqdRHF0E6y4U-48" style="edgeStyle=orthogonalEdgeStyle;rounded=0;orthogonalLoop=1;jettySize=auto;html=1;exitX=0;exitY=0.5;exitDx=0;exitDy=0;entryX=1;entryY=0.5;entryDx=0;entryDy=0;" edge="1" parent="WIyWlLk6GJQsqaUBKTNV-1" source="SwmDp8Q7kqdRHF0E6y4U-45" target="SwmDp8Q7kqdRHF0E6y4U-5">
          <mxGeometry relative="1" as="geometry" />
        </mxCell>
        <mxCell id="SwmDp8Q7kqdRHF0E6y4U-45" value="&amp;nbsp; &amp;nbsp;Запись игр&lt;span style=&quot;white-space: pre;&quot;&gt;&#x9;&lt;/span&gt;" style="rhombus;whiteSpace=wrap;html=1;" vertex="1" parent="WIyWlLk6GJQsqaUBKTNV-1">
          <mxGeometry x="772.5" y="490" width="85" height="80" as="geometry" />
        </mxCell>
      </root>
    </mxGraphModel>
  </diagram>
</mxfile>
